<svg width="38" height="38" viewBox="0 0 38 38" fill="none" xmlns="http://www.w3.org/2000/svg">
<g filter="url(#filter0_d_5115_53)">
<path d="M12.3971 20.7514C12.1892 20.5303 12.0552 20.2499 12.0137 19.9493C11.9723 19.6486 12.0253 19.3425 12.1655 19.0733C12.3118 18.7998 12.5362 18.5765 12.8116 18.4326L14.6374 17.5409C15.0945 17.3137 15.4925 16.9834 15.8 16.576C16.1075 16.1685 16.316 15.6952 16.4091 15.1934L16.7638 13.1672C16.8273 12.8661 16.9837 12.5925 17.211 12.3849C17.4382 12.1773 17.7249 12.0463 18.0305 12.0103C18.3362 11.9742 18.6455 12.0349 18.9148 12.1839C19.1841 12.3329 19.3998 12.5627 19.5316 12.8407L20.4252 14.6688C20.6522 15.1261 20.9826 15.5243 21.3901 15.832C21.7976 16.1397 22.2711 16.3484 22.7732 16.4416L24.7959 16.7995C25.0951 16.8609 25.3677 17.0139 25.5759 17.2374C25.784 17.4609 25.9173 17.7438 25.9572 18.0465C25.9971 18.3493 25.9416 18.657 25.7984 18.9268C25.6553 19.1966 25.4316 19.415 25.1585 19.5518L23.2971 20.4627C22.8529 20.6881 22.4657 21.0114 22.1645 21.4081C21.8634 21.8048 21.6562 22.2647 21.5585 22.753L21.2078 24.7772C21.1461 25.0763 20.9929 25.3488 20.7694 25.5569C20.5458 25.7649 20.2631 25.8982 19.9603 25.9383C19.6575 25.9783 19.3498 25.9231 19.0798 25.7804C18.8099 25.6376 18.5911 25.4143 18.4538 25.1416L17.5647 23.3143C17.3369 22.8546 17.0043 22.4548 16.5938 22.1471C16.1833 21.8393 15.7063 21.6321 15.2011 21.5423L13.1742 21.1849C12.8759 21.1246 12.6044 20.9723 12.3971 20.7514Z" fill="#358BB9"/>
</g>
<defs>
<filter id="filter0_d_5115_53" x="0" y="0" width="37.9697" height="37.9512" filterUnits="userSpaceOnUse" color-interpolation-filters="sRGB">
<feFlood flood-opacity="0" result="BackgroundImageFix"/>
<feColorMatrix in="SourceAlpha" type="matrix" values="0 0 0 0 0 0 0 0 0 0 0 0 0 0 0 0 0 0 127 0" result="hardAlpha"/>
<feOffset/>
<feGaussianBlur stdDeviation="6"/>
<feComposite in2="hardAlpha" operator="out"/>
<feColorMatrix type="matrix" values="0 0 0 0 0.532812 0 0 0 0 0.184062 0 0 0 0 0.590937 0 0 0 0.35 0"/>
<feBlend mode="normal" in2="BackgroundImageFix" result="effect1_dropShadow_5115_53"/>
<feBlend mode="normal" in="SourceGraphic" in2="effect1_dropShadow_5115_53" result="shape"/>
</filter>
</defs>
</svg>
