<svg width="26" height="26" viewBox="0 0 26 26" fill="none" xmlns="http://www.w3.org/2000/svg">
<path d="M9.61549 0.733714C10.0244 0.349558 10.5428 0.101973 11.0987 0.025254C11.6546 -0.0514652 12.2206 0.0464762 12.7184 0.305513C13.224 0.575764 13.6369 0.990312 13.9028 1.49904L15.5512 4.87212C15.9712 5.71661 16.5819 6.45191 17.3352 7.01995C18.0884 7.58799 18.9635 7.97321 19.8914 8.14518L23.6378 8.80012C24.1945 8.91736 24.7004 9.20624 25.0841 9.62605C25.4679 10.0459 25.7101 10.5755 25.7767 11.1402C25.8433 11.7049 25.7309 12.2763 25.4554 12.7739C25.1799 13.2715 24.7551 13.6702 24.2408 13.9138L20.8606 15.565C20.015 15.9847 19.2786 16.5951 18.7097 17.3481C18.1407 18.101 17.7547 18.9759 17.5823 19.9036L16.92 23.6408C16.8065 24.1936 16.5234 24.6973 16.1101 25.0819C15.6968 25.4665 15.1739 25.7128 14.6141 25.7866C14.0542 25.8604 13.4853 25.7579 12.9865 25.4935C12.4877 25.2291 12.0838 24.8159 11.831 24.3113L10.1471 20.8724C9.73035 20.0518 9.13277 19.3364 8.3993 18.78C7.66584 18.2237 6.81562 17.8409 5.91264 17.6606L2.16994 17.013C1.61696 16.8992 1.11317 16.6162 0.728522 16.2032C0.343871 15.7902 0.0974415 15.2678 0.0234474 14.7084C-0.0505467 14.149 0.0515654 13.5805 0.315607 13.0817C0.579649 12.5829 0.99252 12.1786 1.4969 11.9249L4.87562 10.2818C5.72563 9.86079 6.46494 9.24633 7.0341 8.48782C7.60325 7.72931 7.98636 6.84792 8.1526 5.91455L8.81374 2.16962C8.92541 1.61833 9.20694 1.11669 9.61549 0.733714Z" fill="#9547A5"/>
</svg>
