<svg width="180" height="32" viewBox="0 0 180 32" fill="none" xmlns="http://www.w3.org/2000/svg">
<path d="M177.477 31.4949C177.75 31.975 178.361 32.1428 178.841 31.8697C179.321 31.5966 179.489 30.9861 179.216 30.5061L177.477 31.4949ZM4.16266 0.051805C3.63872 -0.122843 3.0724 0.160317 2.89775 0.684261L0.0517023 9.22241C-0.122945 9.74635 0.160215 10.3127 0.684158 10.4873C1.2081 10.662 1.77442 10.3788 1.94907 9.85487L4.47889 2.2654L12.0684 4.79522C12.5923 4.96987 13.1586 4.68671 13.3333 4.16277C13.5079 3.63882 13.2248 3.0725 12.7008 2.89785L4.16266 0.051805ZM179.216 30.5061C175.24 23.5158 170.034 18.9585 163.893 16.2265C157.77 13.5029 150.775 12.6192 143.243 12.8683C128.224 13.365 110.751 18.392 93.2934 22.7174C75.7483 27.0646 58.1872 30.7155 42.7038 28.6732C27.3217 26.6442 13.9604 18.9924 4.74086 0.553275L2.95201 1.4477C12.4825 20.5086 26.4337 28.5443 42.4422 30.656C58.3494 32.7543 76.2571 28.999 93.7744 24.6587C111.38 20.2966 128.562 15.3549 143.309 14.8672C150.66 14.6241 157.325 15.4942 163.08 18.0539C168.815 20.6051 173.703 24.8602 177.477 31.4949L179.216 30.5061Z" fill="#7D298A"/>
</svg>
