<svg width="107" height="129" viewBox="0 0 107 129" fill="none" xmlns="http://www.w3.org/2000/svg">
<path d="M104.888 128.269C105.037 128.801 105.589 129.112 106.12 128.963C106.652 128.815 106.963 128.263 106.815 127.731L104.888 128.269ZM1.35155 81L0.370446 81.1935L1.35155 81ZM50.5565 0.0212094C50.0159 -0.0919334 49.4859 0.254566 49.3728 0.795137L47.529 9.60425C47.4159 10.1448 47.7624 10.6748 48.303 10.7879C48.8435 10.901 49.3735 10.5546 49.4866 10.014L51.1255 2.18365L58.9558 3.82256C59.4964 3.9357 60.0264 3.5892 60.1395 3.04863C60.2526 2.50806 59.9061 1.97812 59.3656 1.86498L50.5565 0.0212094ZM106.815 127.731C103.737 116.701 95.0932 106.01 84.1212 96.7589C73.1298 87.4918 59.698 79.5824 46.867 74.1418C34.0657 68.7139 21.7341 65.6887 12.9669 66.3229C8.58394 66.64 4.92759 67.8844 2.6071 70.383C0.248937 72.9221 -0.545038 76.5507 0.370446 81.1935L2.33266 80.8065C1.49814 76.5743 2.28229 73.6717 4.07257 71.744C5.90052 69.7758 8.96292 68.6178 13.1112 68.3177C21.4065 67.7176 33.3874 70.5986 46.0862 75.9832C58.7552 81.3551 72.0109 89.1644 82.832 98.288C93.6726 107.428 101.967 117.799 104.888 128.269L106.815 127.731ZM0.370446 81.1935C1.07337 84.7583 3.07321 87.064 5.9879 88.1032C8.8239 89.1143 12.3925 88.8802 16.2362 87.7417C23.9413 85.4595 33.238 79.4019 41.2506 70.9389C57.2717 54.0173 68.5482 27.0028 51.1886 0.452751L49.5146 1.54725C66.1549 26.9972 55.4952 52.9846 39.7982 69.5639C31.9517 77.8515 22.9439 83.6691 15.6682 85.824C12.0216 86.9041 8.93081 87.0291 6.65953 86.2193C4.46694 85.4376 2.91162 83.7427 2.33266 80.8065L0.370446 81.1935Z" fill="#7D298A"/>
</svg>
